<svg xmlns="http://www.w3.org/2000/svg" viewBox="0 0 256 256" width="256" height="256">
<defs><radialGradient id="bb" cx="34%" cy="28%" r="78%">
  <stop offset="0%" stop-color="#fff7ed"/>
  <stop offset="52%" stop-color="#f8fafc"/>
  <stop offset="100%" stop-color="#e2e8f0"/>
</radialGradient></defs>
  <circle cx="128" cy="128" r="92" fill="url(#bb)" stroke="#cbd5e1" stroke-width="4"/>
  <ellipse cx="96" cy="96" rx="26" ry="16" fill="#fff" opacity="0.34"/>
  <path d="M64 80c40 28 40 88 0 128" fill="none" stroke="#ef4444" stroke-width="4"/>
  <path d="M192 80c-40 28-40 88 0 128" fill="none" stroke="#ef4444" stroke-width="4"/>
  <g stroke="#ef4444" stroke-width="2">
    <path d="M68 100l8 6M70 120l9 4M74 140l9 2M80 160l8-2"/>
    <path d="M188 100l-8 6M186 120l-9 4M182 140l-9 2M176 160l-8-2"/>
  </g>
</svg>
